<svg width="173" height="50" viewBox="0 0 173 50" fill="none" xmlns="http://www.w3.org/2000/svg">
<path d="M15.8259 0.884154C17.0048 -0.294718 18.9161 -0.294718 20.095 0.884155L35.0368 15.8259C36.2156 17.0048 36.2156 18.9161 35.0368 20.095L20.095 35.0368C18.9161 36.2156 17.0048 36.2156 15.8259 35.0368L0.884154 20.095C-0.294718 18.9161 -0.294718 17.0048 0.884155 15.8259L15.8259 0.884154Z" fill="url(#paint0_linear_14_61)"/>
<path d="M15.8259 14.9632C17.0048 13.7843 18.9161 13.7843 20.095 14.9632L35.0368 29.9049C36.2156 31.0838 36.2156 32.9951 35.0368 34.174L20.095 49.1158C18.9161 50.2946 17.0048 50.2946 15.8259 49.1158L0.884154 34.174C-0.294718 32.9951 -0.294718 31.0838 0.884155 29.9049L15.8259 14.9632Z" fill="url(#paint1_linear_14_61)"/>
<path d="M63.9995 37.4644C62.6066 37.4644 61.3316 37.293 60.1745 36.9501C59.0387 36.6073 58.0209 36.1037 57.1209 35.4394C56.2423 34.7751 55.4495 33.9716 54.7423 33.0287L57.7637 29.5894C58.8137 31.0466 59.853 32.043 60.8816 32.5787C61.9316 33.093 63.0673 33.3501 64.2887 33.3501C64.953 33.3501 65.5423 33.2644 66.0566 33.093C66.5923 32.9001 67.0102 32.6323 67.3102 32.2894C67.6102 31.9466 67.7602 31.5394 67.7602 31.068C67.7602 30.7251 67.6852 30.4144 67.5352 30.1358C67.3852 29.8358 67.1709 29.5787 66.8923 29.3644C66.6137 29.1287 66.2816 28.9251 65.8959 28.7537C65.5102 28.5609 65.0816 28.4001 64.6102 28.2716C64.1387 28.1216 63.6245 28.0037 63.0673 27.918C61.8673 27.6394 60.8173 27.3073 59.9173 26.9216C59.0173 26.5144 58.2673 26.0216 57.6673 25.443C57.0673 24.843 56.6173 24.168 56.3173 23.418C56.0387 22.668 55.8995 21.8216 55.8995 20.8787C55.8995 19.9144 56.1137 19.0251 56.5423 18.2108C56.9709 17.3751 57.5602 16.6573 58.3102 16.0573C59.0816 15.4573 59.9602 14.9966 60.9459 14.6751C61.953 14.3537 63.0137 14.193 64.128 14.193C65.4994 14.193 66.6994 14.3537 67.728 14.6751C68.7566 14.9751 69.6459 15.4144 70.3959 15.993C71.1673 16.5716 71.8102 17.2787 72.3244 18.1144L69.2709 21.0716C68.8209 20.4716 68.328 19.968 67.7923 19.5608C67.278 19.1537 66.7102 18.8537 66.0887 18.6608C65.4887 18.4466 64.8673 18.3394 64.2245 18.3394C63.5173 18.3394 62.9066 18.4359 62.3923 18.6287C61.878 18.8001 61.4709 19.0573 61.1709 19.4001C60.8923 19.743 60.753 20.1609 60.753 20.6537C60.753 21.0394 60.8495 21.3823 61.0423 21.6823C61.2352 21.9823 61.5137 22.2501 61.878 22.4858C62.2423 22.7001 62.6816 22.893 63.1959 23.0644C63.7102 23.2359 64.278 23.3859 64.8995 23.5144C66.078 23.7501 67.1387 24.0608 68.0816 24.4466C69.0245 24.8323 69.828 25.3037 70.4923 25.8608C71.178 26.3966 71.703 27.0394 72.0673 27.7894C72.4316 28.518 72.6137 29.343 72.6137 30.2644C72.6137 31.7859 72.2494 33.0823 71.5209 34.1537C70.7923 35.2251 69.7852 36.0501 68.4995 36.6287C67.2137 37.1858 65.7137 37.4644 63.9995 37.4644Z" fill="white"/>
<path d="M77.6199 37.143V15.8323H82.1842V37.143H77.6199ZM74.4378 24.2216V20.1394H85.6556V24.2216H74.4378Z" fill="white"/>
<path d="M94.4808 37.4644C93.0665 37.4644 91.7915 37.0787 90.6558 36.3073C89.5201 35.5358 88.6201 34.4858 87.9558 33.1573C87.2915 31.8287 86.9594 30.3073 86.9594 28.593C86.9594 26.8787 87.2915 25.368 87.9558 24.0609C88.6415 22.7323 89.563 21.693 90.7201 20.943C91.8772 20.1716 93.1951 19.7859 94.6737 19.7859C95.5094 19.7859 96.2701 19.9144 96.9558 20.1716C97.6629 20.4073 98.2737 20.7394 98.7879 21.168C99.3237 21.5966 99.7737 22.0894 100.138 22.6466C100.502 23.2037 100.759 23.8037 100.909 24.4466L99.9451 24.2859V20.1394H104.477V37.143H99.8808V33.0609L100.909 32.9644C100.738 33.5644 100.459 34.1323 100.074 34.668C99.6879 35.2037 99.2058 35.6858 98.6272 36.1144C98.0701 36.5216 97.4379 36.8537 96.7308 37.1108C96.0237 37.3466 95.2737 37.4644 94.4808 37.4644ZM95.7344 33.5108C96.5915 33.5108 97.3415 33.3073 97.9844 32.9001C98.6272 32.493 99.1201 31.9251 99.4629 31.1966C99.8272 30.4466 100.009 29.5787 100.009 28.593C100.009 27.6287 99.8272 26.7823 99.4629 26.0537C99.1201 25.3251 98.6272 24.7573 97.9844 24.3501C97.3415 23.9216 96.5915 23.7073 95.7344 23.7073C94.8987 23.7073 94.1594 23.9216 93.5165 24.3501C92.8951 24.7573 92.4022 25.3251 92.0379 26.0537C91.6737 26.7823 91.4915 27.6287 91.4915 28.593C91.4915 29.5787 91.6737 30.4466 92.0379 31.1966C92.4022 31.9251 92.8951 32.493 93.5165 32.9001C94.1594 33.3073 94.8987 33.5108 95.7344 33.5108Z" fill="white"/>
<path d="M108.696 37.143V20.1394H113.1L113.26 25.6037L112.489 24.4787C112.746 23.6001 113.164 22.8073 113.743 22.1001C114.321 21.3716 114.996 20.8037 115.768 20.3966C116.56 19.9894 117.385 19.7859 118.243 19.7859C118.607 19.7859 118.96 19.818 119.303 19.8823C119.646 19.9466 119.935 20.0216 120.171 20.1073L118.95 25.1216C118.693 24.993 118.382 24.8858 118.018 24.8001C117.653 24.693 117.278 24.6394 116.893 24.6394C116.378 24.6394 115.896 24.7358 115.446 24.9287C115.018 25.1001 114.643 25.3573 114.321 25.7001C114 26.0216 113.743 26.4073 113.55 26.8573C113.378 27.3073 113.293 27.8001 113.293 28.3358V37.143H108.696Z" fill="white"/>
<path d="M124.7 37.143V15.8323H129.264V37.143H124.7ZM121.518 24.2216V20.1394H132.736V24.2216H121.518Z" fill="white"/>
<path d="M141.204 37.4644C139.961 37.4644 138.889 37.1966 137.989 36.6608C137.111 36.1037 136.425 35.3216 135.932 34.3144C135.461 33.2858 135.225 32.0537 135.225 30.618V20.1394H139.789V29.8787C139.789 30.6501 139.918 31.3251 140.175 31.9037C140.432 32.4608 140.796 32.8894 141.268 33.1894C141.739 33.4894 142.318 33.6394 143.004 33.6394C143.496 33.6394 143.957 33.5644 144.386 33.4144C144.814 33.243 145.179 33.0073 145.479 32.7073C145.779 32.4073 146.014 32.0537 146.186 31.6466C146.357 31.2394 146.443 30.8001 146.443 30.3287V20.1394H151.007V37.143H146.668L146.507 33.6394L147.343 33.2537C147.086 34.0466 146.657 34.7644 146.057 35.4073C145.457 36.0501 144.739 36.5537 143.904 36.918C143.068 37.2823 142.168 37.4644 141.204 37.4644Z" fill="white"/>
<path d="M155.243 44.2144V20.1394H159.646L159.775 23.9644L158.939 23.6751C159.089 22.9894 159.453 22.3573 160.032 21.7787C160.632 21.2001 161.371 20.7287 162.25 20.3644C163.128 20.0001 164.05 19.818 165.014 19.818C166.493 19.818 167.8 20.2037 168.935 20.9751C170.093 21.7251 171.003 22.7644 171.668 24.093C172.353 25.4001 172.696 26.9108 172.696 28.6251C172.696 30.318 172.364 31.8287 171.7 33.1573C171.035 34.4858 170.125 35.5358 168.968 36.3073C167.81 37.0573 166.493 37.4323 165.014 37.4323C164.028 37.4323 163.085 37.2501 162.185 36.8858C161.307 36.5001 160.557 35.9966 159.935 35.3751C159.314 34.7537 158.928 34.0894 158.778 33.3823L159.839 32.9323V44.2144H155.243ZM163.985 33.5108C164.821 33.5108 165.56 33.3073 166.203 32.9001C166.846 32.493 167.35 31.9251 167.714 31.1966C168.078 30.4466 168.26 29.5894 168.26 28.6251C168.26 27.6609 168.078 26.8144 167.714 26.0858C167.35 25.3573 166.846 24.7894 166.203 24.3823C165.582 23.9751 164.843 23.7716 163.985 23.7716C163.128 23.7716 162.378 23.9751 161.735 24.3823C161.093 24.768 160.589 25.3358 160.225 26.0858C159.86 26.8144 159.678 27.6609 159.678 28.6251C159.678 29.5894 159.86 30.4466 160.225 31.1966C160.589 31.9251 161.093 32.493 161.735 32.9001C162.378 33.3073 163.128 33.5108 163.985 33.5108Z" fill="white"/>
<defs>
<linearGradient id="paint0_linear_14_61" x1="7.99876" y1="7.84785" x2="27.6203" y2="27.4693" gradientUnits="userSpaceOnUse">
<stop stop-color="#4A6CF7"/>
<stop offset="1" stop-color="#4A6CF7" stop-opacity="0"/>
</linearGradient>
<linearGradient id="paint1_linear_14_61" x1="7.99878" y1="21.9268" x2="27.6203" y2="41.5483" gradientUnits="userSpaceOnUse">
<stop stop-color="#4A6CF7" stop-opacity="0"/>
<stop offset="1" stop-color="#4A6CF7"/>
</linearGradient>
</defs>
</svg>
