<?xml version="1.0" encoding="utf-8"?>
<!-- Generator: Adobe Illustrator 19.2.1, SVG Export Plug-In . SVG Version: 6.00 Build 0)  -->
<svg version="1.1" id="layer" xmlns="http://www.w3.org/2000/svg" xmlns:xlink="http://www.w3.org/1999/xlink" x="0px" y="0px"
	 viewBox="0 0 652 652" style="enable-background:new 0 0 652 652;" xml:space="preserve">
<g>
	<path d="M118.1,314h38.5l1.8-12h-38.5c0.2-1.1,1.9-12.9,2-13.4h38.5l1.8-12h-0.8h-38.2c-8,0-15.3,5.3-16.2,11.7l-6.3,42.4
		c-1,6.5,4.8,11.7,12.7,11.7h38.8l1.8-12h-38.5C115.8,329.8,117.9,315.2,118.1,314"/>
	<path d="M262.8,314h38.5l1.8-12h-38.5c0.2-1.1,1.9-12.9,2-13.4h38.5l1.8-12h-0.8H268c-8,0-15.3,5.3-16.2,11.7l-6.3,42.4
		c-1,6.5,4.8,11.7,12.7,11.7H297l1.8-12h-38.5C260.4,329.8,262.6,315.2,262.8,314"/>
	<path d="M507.5,314H546l1.8-12h-38.5c0.2-1.1,1.9-12.9,2-13.4h38.5l1.8-12h-0.8h-38.2c-8,0-15.3,5.3-16.2,11.7l-6.3,42.4
		c-1,6.5,4.8,11.7,12.7,11.7h38.8l1.8-12H505C505.1,329.8,507.3,315.2,507.5,314"/>
	<path d="M83.7,307.7c4.3-3.4,7-7.8,7.6-12.4c1.5-10.3-7.6-18.8-20.4-18.8l-25.4,0c-8,0-15.3,5.3-16.2,11.7L23,330.7
		c-1,6.5,4.7,11.7,12.7,11.7h25.5h0h0c13.7,0,26.2-9.1,27.9-20.2C90,316.8,88,311.5,83.7,307.7 M40.3,314.1h25.1h0
		c5.6,0,9.5,3.7,8.9,8.2c-0.7,4.5-5.7,8.2-11.3,8.2H37.9C38,329.9,40.2,315.2,40.3,314.1 M67.2,302h-25c0.2-1.1,1.9-12.9,2-13.4
		h25.1c4.6,0,7.8,3,7.3,6.7C75.9,299,71.7,302,67.2,302"/>
	<path d="M223.2,276.6l-6.8,45.7c-0.7,4.5-5.7,8.2-11.3,8.2H196l-1.8,12h9.2c13.8,0,26.3-9.1,28-20.2l6.8-45.7h-0.7H223.2z"/>
	<path d="M618.4,288.6l1.8-12h-0.7H581c-8,0-15.3,5.3-16.2,11.7l-8.1,54.2h14.9c0,0,4.1-27.3,4.2-28.4h38.6l1.8-12h-38.6
		c0.2-1.1,1.9-12.8,2-13.4H618.4z"/>
</g>
<polygon points="178.4,276.6 168.6,342.5 183.4,342.5 193.2,276.6 192.5,276.6 "/>
<g>
	<path d="M376.8,306c3.2-3.2,5.2-6.9,5.8-10.7c1.5-10.3-7.6-18.7-20.4-18.7h-25.4c-8,0-15.2,5.3-16.2,11.7l-8.1,54.2h14.9
		c0,0,4-27.2,4.2-28.4h18.6c0.3,0.7,11.9,28.3,11.9,28.3h16.4c0,0-12.1-28.7-12.5-29.8C370.1,311.2,373.9,309,376.8,306
		 M367.7,295.3c-0.6,3.7-4.7,6.7-9.3,6.7l0,0h-25c0.2-1.1,1.9-12.9,2-13.4h25.1C365,288.6,368.3,291.6,367.7,295.3"/>
	<path d="M477.1,306c3.2-3.2,5.2-6.9,5.8-10.7c1.5-10.3-7.6-18.7-20.4-18.7h-25.4c-8,0-15.3,5.3-16.2,11.7l-8.1,54.2h14.9
		c0,0,4-27.2,4.2-28.4h18.6c0.3,0.7,11.9,28.3,11.9,28.3h16.4c0,0-12.1-28.7-12.5-29.8C470.4,311.2,474.2,309,477.1,306
		 M468.1,295.3c-0.6,3.7-4.7,6.7-9.3,6.7l0,0h-25c0.2-1.1,1.9-12.9,2-13.4h25.1C465.3,288.6,468.6,291.6,468.1,295.3"/>
	<path d="M608.3,354.9l-1.7,12.1l-569.7,0l0,0c-11.2,0.1-16.9-6.2-16.7-15.7c0-1.3,0.2-2.7,0.5-3.9v0c2.4,4.9,6.2,7.4,14.9,7.4
		H608.3z"/>
</g>
<polyline points="35.5,354.9 608.6,354.9 606.9,367 36.9,367.1 "/>
</svg>
