<svg width="200" height="47" viewBox="0 0 200 47" fill="none" xmlns="http://www.w3.org/2000/svg">
<path d="M75.5301 31.8596H72.292V14.1332H78.9419C79.745 14.1211 80.5411 14.2857 81.2735 14.6155C81.9469 14.9207 82.5533 15.3562 83.058 15.8967C83.5506 16.4232 83.9405 17.0371 84.2076 17.7071C84.6749 18.8552 84.7468 20.1263 84.4116 21.3198C84.2746 21.8124 84.0683 22.2828 83.7992 22.7175C83.2252 23.6361 82.4073 24.3769 81.4369 24.8569C82.3026 26.038 83.1635 27.2075 84.0197 28.3654C84.8758 29.5233 85.7415 30.6881 86.6168 31.8596H84.0728C83.864 31.8547 83.6572 31.8167 83.4602 31.7473C83.2047 31.6631 82.9615 31.5448 82.7375 31.3957C82.4592 31.2159 82.1982 31.0106 81.9576 30.7827C81.665 30.4961 81.4023 30.1804 81.1735 29.8407L77.9476 25.4863H75.5301V31.8596ZM79.0419 22.223C79.3514 22.2212 79.6566 22.1514 79.9362 22.0187C80.2165 21.8916 80.4691 21.7103 80.6794 21.4853C80.8918 21.2605 81.0612 20.9988 81.1797 20.713C81.3019 20.4261 81.3651 20.1175 81.3654 19.8056C81.3657 19.4884 81.3026 19.1745 81.1797 18.882C81.0602 18.5968 80.8908 18.3352 80.6794 18.1097C80.4685 17.8859 80.2161 17.7054 79.9362 17.5784C79.657 17.4447 79.3515 17.3748 79.0419 17.374H75.5301V22.2107L79.0419 22.223Z" fill="white"/>
<path d="M95.2659 14.1326H98.2016L105.955 31.8594H103.936C103.49 31.8634 103.052 31.7393 102.674 31.5019C102.296 31.2649 101.998 30.9194 101.819 30.5108L100.765 28.1118H92.7024L91.6631 30.5108C91.578 30.7105 91.4605 30.8948 91.3153 31.0564C91.1666 31.2207 90.9959 31.3637 90.808 31.4814C90.6177 31.6027 90.411 31.6963 90.1943 31.7593C89.9797 31.8258 89.7562 31.8595 89.5314 31.8594H87.5122L95.2659 14.1326ZM94.1386 24.8566H99.3289L97.013 19.4885C96.9143 19.2709 96.8415 19.0425 96.7962 18.808C96.7593 18.6036 96.7348 18.4442 96.7266 18.338C96.7115 18.498 96.6869 18.657 96.653 18.8141C96.6071 19.045 96.5385 19.2709 96.4484 19.4885L94.1386 24.8566Z" fill="white"/>
<path d="M115.276 31.8596H112.019V24.3501C112.023 24.1043 111.964 23.8615 111.847 23.6453C111.708 23.402 111.555 23.1667 111.389 22.9403L104.881 14.1333H107.368C107.867 14.1226 108.361 14.2327 108.809 14.4541C109.227 14.6696 109.583 14.989 109.843 15.3818L113.343 20.1204C113.446 20.2577 113.522 20.4129 113.568 20.578C113.609 20.7334 113.631 20.8335 113.639 20.8744C113.655 20.776 113.678 20.679 113.709 20.5842C113.758 20.4154 113.84 20.2578 113.95 20.1204L117.438 15.3941C117.692 14.9919 118.049 14.6651 118.472 14.4479C118.921 14.2306 119.415 14.1227 119.913 14.1333H122.429L115.904 22.9525C115.806 23.0854 115.718 23.2058 115.646 23.3183C115.572 23.4235 115.504 23.5327 115.442 23.6453C115.385 23.7512 115.342 23.8637 115.313 23.9804C115.283 24.1012 115.268 24.2255 115.27 24.3501L115.276 31.8596Z" fill="white"/>
<path d="M140.335 23.3505V30.1608C139.934 30.5301 139.481 30.8404 138.992 31.0822C138.491 31.329 137.965 31.5237 137.423 31.6632C136.855 31.8078 136.276 31.9066 135.691 31.9587C135.095 32.0118 134.488 32.0383 133.876 32.0383C132.655 32.0469 131.447 31.8047 130.326 31.3269C129.244 30.8699 128.259 30.2126 127.426 29.3904C126.595 28.5676 125.931 27.5937 125.472 26.5223C125 25.4066 124.757 24.2089 124.757 22.9989C124.757 21.789 125 20.5912 125.472 19.4755C125.934 18.4005 126.6 17.424 127.434 16.5993C128.269 15.7776 129.252 15.1205 130.334 14.6628C132.58 13.7298 135.107 13.7166 137.363 14.6261C138.426 15.0661 139.394 15.7001 140.22 16.4954L140.097 16.6075C139.951 16.7536 139.78 16.8725 139.593 16.958C139.401 17.0379 139.195 17.0775 138.988 17.0742C138.702 17.0762 138.423 16.9899 138.19 16.8276C137.573 16.4077 136.899 16.0775 136.187 15.8471C135.443 15.6097 134.665 15.4913 133.884 15.4965C133.204 15.4939 132.528 15.5829 131.872 15.7615C131.24 15.9325 130.633 16.1875 130.069 16.5198C129.511 16.8465 128.995 17.2401 128.535 17.6919C128.075 18.1446 127.678 18.6551 127.352 19.2105C127.022 19.7748 126.765 20.3782 126.587 21.0063C126.402 21.6543 126.311 22.3247 126.313 22.9979C126.311 23.6722 126.405 24.3435 126.593 24.9914C126.961 26.2491 127.651 27.3906 128.598 28.3039C129.068 28.7577 129.592 29.1521 130.159 29.478C130.736 29.809 131.355 30.0639 131.998 30.2363C132.656 30.4144 133.336 30.5036 134.02 30.5013C134.865 30.5041 135.708 30.3902 136.522 30.1629C137.331 29.9339 138.102 29.5906 138.813 29.1437V24.8915H137.231C137.028 24.8951 136.827 24.8569 136.64 24.7793C136.451 24.7019 136.283 24.5866 136.142 24.4411C136.013 24.303 135.912 24.1418 135.843 23.9662C135.773 23.7846 135.738 23.5918 135.738 23.3975V23.3485L140.335 23.3505Z" fill="white"/>
<path d="M147.095 31.8596H145.528V14.1327H151.819C152.495 14.1274 153.165 14.2596 153.788 14.521C154.384 14.7726 154.926 15.1339 155.384 15.5856C155.843 16.0381 156.209 16.5738 156.463 17.1632C156.728 17.7725 156.862 18.4292 156.858 19.0921C156.859 19.6957 156.752 20.2947 156.543 20.8618C156.343 21.4166 156.051 21.935 155.68 22.3964C155.312 22.8488 154.862 23.2287 154.351 23.5162C153.831 23.8094 153.255 23.9924 152.659 24.0537L158.599 31.8596H157.86C157.001 31.8596 156.363 31.5449 155.956 30.9217L150.728 24.0537H147.095V31.8596ZM147.095 15.6776V22.5068H151.819C152.281 22.5097 152.741 22.4194 153.166 22.2411C153.579 22.0695 153.953 21.8211 154.27 21.5096C154.586 21.1969 154.838 20.828 155.015 20.4225C155.2 20.0028 155.294 19.5497 155.291 19.0921C155.294 18.6373 155.2 18.1868 155.015 17.77C154.657 16.9524 153.996 16.3009 153.166 15.9494C152.742 15.7673 152.282 15.6747 151.819 15.6776H147.095Z" fill="white"/>
<path d="M164.15 31.8595H162.718V14.1326H164.15V31.8595Z" fill="white"/>
<path d="M170.238 31.8594V14.1326H176.76C178.332 14.1264 179.877 14.5451 181.23 15.3444C182.545 16.1201 183.642 17.2161 184.419 18.5301C185.216 19.8855 185.637 21.4295 185.637 23.0022C185.637 24.5747 185.216 26.1188 184.419 27.4743C184.031 28.128 183.564 28.7308 183.027 29.2683C181.943 30.3528 180.595 31.1366 179.117 31.5428C178.35 31.7562 177.557 31.8628 176.76 31.8594H170.238ZM176.76 30.3125C177.743 30.3204 178.717 30.125 179.622 29.7383C180.488 29.3678 181.278 28.8367 181.948 28.1731C182.617 27.5068 183.151 26.7171 183.52 25.8476C183.899 24.9468 184.094 23.9794 184.094 23.0022C184.094 22.0248 183.899 21.0574 183.52 20.1567C183.15 19.2859 182.616 18.4943 181.948 17.8251C181.279 17.1589 180.489 16.6257 179.622 16.2537C178.717 15.8664 177.744 15.6702 176.76 15.6774H171.785V30.3125H176.76Z" fill="white"/>
<path d="M196.863 16.4736C196.672 16.343 196.503 16.2186 196.36 16.1043C196.06 15.8647 195.71 15.6958 195.335 15.6106C195.065 15.5558 194.79 15.5312 194.514 15.5372C194.049 15.5345 193.585 15.6162 193.149 15.7779C192.736 15.9292 192.351 16.1485 192.012 16.4267C191.693 16.6893 191.429 17.0126 191.237 17.3774C191.049 17.7312 190.95 18.1257 190.951 18.526C190.94 18.9128 191 19.2985 191.133 19.6624C191.264 19.973 191.477 20.2433 191.748 20.4459C192.093 20.7073 192.473 20.9195 192.878 21.0764C193.345 21.2695 193.923 21.4857 194.61 21.7251C194.976 21.8612 195.317 21.9849 195.636 22.0965C195.95 22.2107 196.252 22.3291 196.53 22.4473C196.8 22.5606 197.063 22.688 197.319 22.8288C197.563 22.9663 197.798 23.1212 198.02 23.292C198.579 23.707 199.007 24.2737 199.25 24.9242C199.492 25.6027 199.612 26.3181 199.603 27.0378C199.615 27.7595 199.457 28.4741 199.144 29.125C198.847 29.7314 198.424 30.2683 197.903 30.7C197.362 31.1436 196.74 31.4808 196.071 31.6936C195.345 31.9291 194.585 32.0455 193.821 32.0384C192.273 32.0384 190.97 31.5814 189.909 30.6673C189.643 30.4262 189.397 30.1642 189.171 29.884C188.992 29.658 188.828 29.4201 188.681 29.1719L188.866 29.0617C189.102 28.9169 189.372 28.8359 189.649 28.8271C189.842 28.8262 190.034 28.853 190.22 28.9066C190.403 28.9616 190.571 29.062 190.706 29.1984C190.99 29.468 191.3 29.7099 191.63 29.9207C191.876 30.0735 192.138 30.198 192.412 30.292C192.642 30.3666 192.879 30.4138 193.12 30.4328C193.346 30.4491 193.58 30.4613 193.821 30.4695C194.326 30.4854 194.829 30.4291 195.316 30.3022C195.802 30.1841 196.262 29.9764 196.67 29.6901C197.073 29.4059 197.409 29.0367 197.652 28.6088C197.916 28.1292 198.048 27.5885 198.033 27.042C198.056 26.4827 197.955 25.9252 197.735 25.4098C197.548 25.0166 197.265 24.6755 196.914 24.4162C196.531 24.1447 196.11 23.9302 195.665 23.7797C195.185 23.6097 194.667 23.4178 194.113 23.2043C193.409 22.9248 192.767 22.6636 192.188 22.427C191.657 22.215 191.158 21.93 190.706 21.5802C190.297 21.2581 189.969 20.8461 189.748 20.3765C189.499 19.7913 189.384 19.1588 189.407 18.5241C189.399 17.8699 189.557 17.2241 189.866 16.6471C190.165 16.0956 190.567 15.6065 191.052 15.2066C191.541 14.8059 192.097 14.4924 192.693 14.2805C193.28 14.0674 193.9 13.957 194.524 13.954C195.007 13.9479 195.487 14.0167 195.948 14.158C196.356 14.285 196.747 14.459 197.113 14.6762C197.457 14.8791 197.778 15.117 198.071 15.3862C198.356 15.6501 198.619 15.9099 198.859 16.1656L198.473 16.4369C198.369 16.5127 198.255 16.5731 198.133 16.6164C197.981 16.6648 197.823 16.6876 197.665 16.6838C197.383 16.6937 197.103 16.6206 196.863 16.4736Z" fill="white"/>
<path d="M67.034 22.3797V29.8102C66.6028 30.2421 66.1133 30.6123 65.5794 30.9099C65.059 31.1995 64.5077 31.4305 63.9358 31.5989C63.3528 31.769 62.7551 31.8847 62.1505 31.9444C61.5287 32.0075 60.904 32.0389 60.279 32.0383C59.0623 32.048 57.8568 31.8085 56.737 31.3352C55.6569 30.877 54.6728 30.2211 53.8362 29.4013C53.0043 28.5778 52.3397 27.6028 51.8783 26.5294C51.3979 25.4149 51.1544 24.2137 51.1633 23.0011C51.1541 21.3963 51.5799 19.8187 52.3959 18.4345C52.7956 17.7634 53.2789 17.1453 53.8341 16.5947C54.9518 15.4874 56.3393 14.688 57.8608 14.2746C58.6491 14.0584 59.4634 13.9505 60.2809 13.9537C60.938 13.9526 61.5929 14.0274 62.2327 14.1764C62.8706 14.324 63.4906 14.5399 64.0818 14.8203C64.6764 15.1074 65.2426 15.4496 65.7726 15.8424C66.3143 16.2416 66.8184 16.689 67.2785 17.1794L66.5306 17.9337C66.3189 18.1645 66.0594 18.3471 65.77 18.4689C65.4806 18.5906 65.1683 18.6485 64.8542 18.6389C64.3999 18.6426 63.9559 18.5046 63.5845 18.2444C63.1112 17.9205 62.5937 17.6659 62.0478 17.488C61.4799 17.3048 60.8862 17.2131 60.2892 17.2161C59.5123 17.2133 58.7432 17.3691 58.0293 17.674C56.6241 18.2581 55.4991 19.3584 54.888 20.7463C54.5765 21.4553 54.4177 22.2212 54.4216 22.9949C54.4155 23.782 54.5809 24.561 54.9065 25.2783C55.3863 26.3287 56.1598 27.2194 57.1348 27.8439C58.1097 28.4684 59.2447 28.8005 60.4042 28.8004C60.7997 28.7911 61.1942 28.7576 61.5856 28.7003C61.955 28.6451 62.3207 28.5671 62.6806 28.4671C63.0568 28.3639 63.4169 28.2098 63.7509 28.0094V25.5175L62.7237 25.4991C62.4154 25.5003 62.1104 25.4347 61.83 25.3069C61.5563 25.1739 61.3351 24.9538 61.2014 24.6814C61.0197 24.2716 60.9386 23.8245 60.9651 23.3773V22.3857L67.034 22.3797Z" fill="white"/>
<path d="M43.8741 25.8933C45.3307 14.5062 37.2806 4.09427 25.8933 2.63757C14.5063 1.18086 4.09428 9.23106 2.63757 20.6182C1.18087 32.0053 9.23107 42.4173 20.6182 43.874C32.0053 45.3307 42.4173 37.2805 43.8741 25.8933Z" fill="white"/>
<path d="M23.4375 22.2998V24.2924H27.8032V27.6251H23.4659V27.6134C23.3501 27.6134 23.2295 27.6251 23.1161 27.6251C22.3269 27.6267 21.5496 27.4332 20.8532 27.0621C20.1568 26.691 19.5628 26.1536 19.1238 25.4979C18.6779 24.8333 18.4038 24.0684 18.3262 23.2718C18.2487 22.4752 18.3701 21.6718 18.6794 20.9336C19.0436 20.0704 19.6503 19.3314 20.4262 18.8063C21.0897 18.359 21.8544 18.084 22.6509 18.0064C23.4474 17.9289 24.2507 18.0511 24.9881 18.3619C25.4138 18.5408 25.8118 18.7796 26.17 19.0711H34.6793C34.5681 18.7306 34.4429 18.395 34.3081 18.0689C33.4516 16.0505 32.0644 14.3019 30.2938 13.0088C28.5233 11.7156 26.4355 10.9262 24.2523 10.7244C22.0692 10.5226 19.8721 10.9159 17.8945 11.8626C15.9168 12.8092 14.2326 14.2739 13.0207 16.101C11.8086 17.9281 11.1142 20.0492 11.011 22.2393C10.9079 24.4295 11.3998 26.6065 12.4347 28.5395C13.4696 30.4724 15.0087 32.0888 16.8886 33.2171C18.7685 34.3455 20.9188 34.9436 23.1114 34.9479H35.1661V22.2881L23.4375 22.2998ZM27.8032 32.9364H23.785C23.6314 32.9364 23.4778 32.9529 23.3123 32.9553H22.9695C21.2267 32.9334 19.519 32.4627 18.011 31.5886C16.5031 30.7146 15.2458 29.4668 14.3605 27.9654C13.4752 26.464 12.9917 24.7599 12.9567 23.0172C12.9217 21.2747 13.3364 19.5525 14.1607 18.0168C14.9848 16.4811 16.191 15.1838 17.6626 14.2498C19.1343 13.316 20.8217 12.777 22.5623 12.685C24.3028 12.5932 26.0376 12.9513 27.5994 13.725C29.1612 14.4986 30.4973 15.6618 31.4788 17.1021H26.8081C25.9195 16.5239 24.9082 16.1613 23.8546 16.0431C22.8011 15.9248 21.7346 16.0543 20.74 16.4212C19.7453 16.7881 18.8501 17.3821 18.1257 18.1562C17.4011 18.9302 16.8675 19.8626 16.5672 20.8793C16.2668 21.8961 16.208 22.9689 16.3955 24.0122C16.5831 25.0556 17.0117 26.0408 17.6473 26.8893C18.2829 27.7378 19.1079 28.4261 20.0565 28.8995C21.0052 29.3727 22.0512 29.6178 23.1114 29.6154H27.7986L27.8032 32.9364ZM33.1972 32.9553H29.7982L29.8147 32.9435H29.7982V29.6154H33.1972V32.9553ZM33.1972 27.6299H29.7982V24.2971H33.1972V27.6299Z" fill="white"/>
<path d="M35.2571 23.4242V35.0768H23.7023H23.7022C21.5981 35.0772 19.5332 34.507 17.7273 33.4269L17.7273 33.4269C15.9214 32.3469 14.4422 30.7976 13.447 28.9436L13.447 28.9436C12.4518 27.0898 11.9778 25.0006 12.0755 22.8987C12.1732 20.7969 12.8391 18.7607 14.0021 17.0073L14.0021 17.0072C15.165 15.2536 16.7816 13.8482 18.68 12.9405L18.68 12.9405C20.5782 12.0327 22.6871 11.6566 24.7822 11.8521C26.8772 12.0477 28.8801 12.8077 30.5775 14.0511C32.2744 15.2941 33.6027 16.9738 34.4211 18.9115C34.4636 19.0143 34.5051 19.1176 34.5453 19.2212H26.9183C25.956 18.4856 24.7695 18.0998 23.5549 18.1311L23.5548 18.1311C22.2793 18.1641 21.0583 18.655 20.1149 19.514L20.1149 19.514C19.1716 20.3731 18.569 21.5431 18.4172 22.8099L18.4172 22.81C18.2656 24.0768 18.5747 25.356 19.2885 26.4136L19.2895 26.4151C19.8701 27.2688 20.6848 27.9367 21.6355 28.3388L21.6363 28.3392C22.2455 28.5955 22.897 28.7357 23.5569 28.7524V28.7541H23.6772C23.6864 28.7541 23.6955 28.7541 23.7047 28.7541C23.7049 28.7541 23.7051 28.7541 23.7054 28.7541C23.7056 28.7541 23.7058 28.7541 23.7061 28.7541L24.0569 28.7541H28.3896H28.8896V28.2541V24.9213V24.4213H28.3896H24.5262V23.4285L35.2571 23.4242ZM28.3896 34.0653H28.6746L28.6442 34.0843H30.3844H33.7835H34.2835V33.5843V30.2632V29.7632H33.7835H30.3844H29.8844V30.2632V33.3075L28.8896 33.9306V33.5653V30.2586V29.7586H28.3896H23.7026C22.7221 29.7581 21.7553 29.5288 20.8788 29.0894C20.0023 28.6498 19.2404 28.012 18.6534 27.2266C18.0666 26.4412 17.6709 25.5297 17.4977 24.5647C17.3246 23.5995 17.3788 22.6074 17.6562 21.6669C17.9337 20.7264 18.4264 19.8637 19.0954 19.147L19.0955 19.147C19.7645 18.4303 20.5916 17.8794 21.5106 17.5381L21.5106 17.5381C22.4299 17.1968 23.4159 17.0745 24.3906 17.181C25.3654 17.2874 26.3018 17.6196 27.1257 18.1512L27.2495 18.231H27.3968H32.0721H33.0178L32.4853 17.4495C31.4558 15.9387 30.0545 14.7185 28.4163 13.9068C26.7782 13.095 24.9586 12.7189 23.1329 12.8147L23.1591 13.314L23.1329 12.8147C21.3072 12.9105 19.5369 13.475 17.9929 14.4538C16.4488 15.4326 15.1828 16.7927 14.3171 18.4029C13.4512 20.0132 13.0149 21.8193 13.0501 23.6471C13.0852 25.475 13.5906 27.2631 14.5175 28.8388L14.5175 28.8389C15.4446 30.4146 16.7617 31.725 18.3424 32.6438L18.5937 32.2115L18.3424 32.6438C19.923 33.5625 21.7136 34.0586 23.5417 34.0843L23.5417 34.0843H23.5487H23.8985V34.0844L23.906 34.0843C23.995 34.0829 24.0807 34.0781 24.1534 34.0739L24.1684 34.0731C24.2482 34.0686 24.3117 34.0653 24.3713 34.0653H28.3896ZM33.7835 28.7588H34.2835V28.2588V24.926V24.426H33.7835H30.3844H29.8844V24.926V28.2588V28.7588H30.3844H33.7835Z" fill="white" stroke="black"/>
</svg>
