<?xml version="1.0" encoding="UTF-8" standalone="no"?>
<svg xmlns="http://www.w3.org/2000/svg" height="40.289" xmlns:rdf="http://www.w3.org/1999/02/22-rdf-syntax-ns#" xmlns:cc="http://creativecommons.org/ns#" xmlns:dc="http://purl.org/dc/elements/1.1/" width="200" version="1.1">
 <g transform="translate(-161.77 -161.54)">
  <path fill="#471679" d="m199.44 162.34-6.189 38.837h-14.346l6.0497-38.837h14.486"/>
  <path fill="#ba313b" d="m182.25 162.34-6.189 38.837h-14.29l5.9933-38.837h14.486"/>
  <g>
   <path d="m358.7 165.13v-0.94528h0.59867c0.30515 0 0.63017 0.0697 0.63017 0.44776 0 0.47098-0.33166 0.49752-0.70314 0.49752h-0.5257zm0 0.39303h0.50415l0.76449 1.325h0.49255l-0.82421-1.3466c0.42453-0.0547 0.75124-0.29352 0.75124-0.8408 0-0.60364-0.33998-0.86897-1.0232-0.86897h-1.1028v3.0564h0.4378v-1.325"/>
   <path d="m224.87 172.64 1.4096-9.7561c-1.592-0.72139-3.2769-1.1095-5.0961-1.1095-9.8324 0-18.788 9.844-18.788 25.144 0 9.8672 6.8706 14.497 13.459 14.497 0 0 2.4262 0 4.5074-1.0398l1.1791-8.32c-1.1791 0-2.0066 0.0364-2.8242 0.0547-3.9021 0.0831-5.6368-2.4826-5.6368-8.0298 0-7.9817 4.7346-12.244 8.8308-12.244 1.0464 0 1.9568 0.19402 2.9585 0.80264"/>
   <path d="m223.07 201.07h19.139l1.733-9.7064h-8.32l4.5074-28.915h-10.599l-6.461 38.622"/>
   <path d="m244.28 201.14h10.401l6.5887-38.9h-11.096l-5.8938 38.9"/>
   <path d="m286.47 188.8-1.5472 10.423c1.8209 1.5522 4.733 2.6335 8.0563 2.6053 8.1707-0.0713 15.798-4.5787 15.798-12.899 0-6.2404-3.6202-7.5174-6.0331-10.401-1.7297-2.1061-2.6351-3.3151-2.6351-5.2006 0-1.6069 1.388-2.4262 2.0812-2.4262 1.6385 0 5.0431 0.64676 7.0464 2.3648l1.2736-9.645c-2.5025-1.5522-6.5837-2.0812-9.3598-2.0812-6.8739 0-12.136 7.2819-12.136 12.134 0 3.937 1.2206 6.3134 3.8142 9.3615 2.0033 2.3283 4.6915 3.4146 4.6915 5.6334 0 2.0498-1.1376 3.3814-2.9585 3.3814-1.9104 0-5.9519-1.0879-8.0912-3.2504"/>
   <path d="m336.99 201.14 19.285-0.068 1.3798-8.6699h-8.6682l4.7844-29.469h-10.35l-6.4311 38.207"/>
   <path d="m273.44 171.25h0.31673c2.0481 0 3.8143 0.3466 3.8143 3.4676 0 3.1194-2.0879 5-4.6832 5-0.18076 0-0.50083 0-0.86401-0.0547l1.4162-8.4129zm-15.748 29.857 10.517 0.0283 1.8922-12.605c0.40962 0 0.81924 0.0547 1.2288 0.0547 8.5555 0 15.705-3.0879 16.295-12.827 0.69318-11.441-6.2404-12.827-9.7081-13.174h-13.869l-6.3565 38.524"/>
   <path d="m321.19 187.76 3.189-12.346 0.0697 12.342-3.2587 0.005zm-14.907 13.658 10.123-0.003 2.0796-5.5472h6.587l0.0233 5.2006h10.274l-2.6683-38.136h-12.222l-14.196 38.486"/>
   <path d="m357.18 165.31c0-1.2554 0.89717-2.2006 2.0464-2.2006 1.1376 0 2.0348 0.94525 2.0348 2.2006 0 1.2769-0.89717 2.2172-2.0348 2.2172-1.1492 0-2.0464-0.94028-2.0464-2.2172zm2.0464 2.6584c1.3698 0 2.539-1.1227 2.539-2.6584 0-1.5207-1.1692-2.6434-2.539-2.6434-1.3814 0-2.5506 1.1227-2.5506 2.6434 0 1.5356 1.1692 2.6584 2.5506 2.6584"/>
  </g>
 </g>
</svg>
